<svg width="100%" height="100%" x="0" y="0" viewBox="0 0 96 96" version="1.1" xmlns="http://www.w3.org/2000/svg" xmlns:xlink="http://www.w3.org/1999/xlink" xml:space="preserve">
<g>
<path d="M58.981,67.101c-0.285-2.646,0.521-5.237,2.205-7.289c1.658-2.018,4.191-3.151,6.261-4.687c-1.506,2.215-3.064,4.548-4.955,6.451
	c5.008-2.464,8.633-6.489,10.664-11.675c-0.904,0.233-2.045,0.173-3.006,0.302c-1.014,0.137-2.024,0.305-3.025,0.515
	c-2.066,0.433-4.091,0.993-6.075,1.716c-1.005,0.365-1.999,0.758-2.974,1.199c-0.813,0.368-1.723,1-2.521,1.232
	c-0.63,0.184-1.334-0.178-1.286-0.915c0.051-0.788,1.096-1.175,1.671-1.541c3.615-2.302,7.356-4.367,11.246-6.17
	c3.777-1.751,7.858-2.861,11.504-4.848c7.277-3.964,12.429-10.551,14.66-18.515c0.472-1.683,0.696-3.425,0.875-5.158
	c-0.723,1.594-1.233,3.272-2.111,4.818c-0.898,1.583-1.92,3.082-3.103,4.467c-1.178,1.379-2.496,2.628-3.921,3.749
	c-1.396,1.1-2.931,1.908-4.427,2.831c0.872-3.997,1.415-8.04,1.454-12.137c0.038-4.011-0.201-8.276-1.207-12.171
	c-0.181,8.674-2.552,17.16-7.107,24.565c-1.09,1.771-2.253,3.747-3.889,5.053c-1.604,1.281-3.44,2.261-5.375,2.939
	c-0.946,0.332-4.002,1.523-3.673-0.592c0.14-0.897,0.576-1.871,0.796-2.786c0.239-0.999,0.385-2.015,0.522-3.031
	c0.258-1.908,0.352-4.042,0.049-5.944c-0.967,4.307-2.979,8.213-5.908,11.514c-1.42,1.6-3.099,3.018-4.894,4.179
	c-0.892,0.577-1.816,1.113-2.778,1.564c-0.681,0.32-0.673,0.311-1.359-0.024c-0.482-0.235-0.978-0.476-1.439-0.751
	c-6.157-3.679-10.503-9.457-12.089-16.481c-0.161,1.975-0.204,3.975,0.061,5.944c0.137,1.018,0.283,2.032,0.521,3.031
	c0.219,0.916,0.655,1.886,0.796,2.786c0.33,2.108-2.685,0.924-3.623,0.612c-1.949-0.648-3.766-1.666-5.386-2.921
	c-1.675-1.298-2.783-3.289-3.914-5.055c-1.121-1.748-2.135-3.648-2.95-5.559c-1.727-4.047-2.969-8.179-3.658-12.527
	c-0.341-2.153-0.479-4.339-0.525-6.517c-1.506,8.163-1.514,16.181,0.259,24.308c-1.496-0.923-3.03-1.732-4.427-2.831
	C9.496,29.632,8.176,28.383,7,27.004c-1.183-1.386-2.203-2.884-3.103-4.467c-0.452-0.795-0.834-1.627-1.209-2.461
	c-0.337-0.75-0.523-1.663-0.912-2.357c0.832,8.181,4.611,15.569,11.062,20.741c3.255,2.61,6.949,4.109,10.788,5.575
	c3.995,1.525,7.854,3.395,11.595,5.462c1.807,0.999,3.573,2.079,5.3,3.211c0.573,0.375,1.544,0.811,1.141,1.679
	c-0.318,0.685-0.976,0.584-1.504,0.319c-3.829-1.915-7.798-3.305-12.001-4.13c-0.866-0.17-1.744-0.306-2.62-0.411
	c-0.86-0.103-1.887-0.056-2.691-0.264c2.011,5.186,5.665,9.218,10.663,11.675c-0.892-1.021-1.759-2.059-2.585-3.135
	c-0.811-1.057-1.504-2.336-2.37-3.307c3.349,2.203,6.899,4.143,8.153,8.213c0.278,0.902,0.397,1.883,0.377,2.826
	c-0.019,0.866-0.192,1.67-0.005,2.545c0.413,1.922,2.285,3.033,3.362,4.572c1.227,1.752,1.726,3.709,2.124,5.746
	c0.357,1.825,0.614,4.137,1.768,5.657c1.16,1.527,3.133,2.421,4.998,1.749c1.926-0.693,2.889-2.318,3.383-4.203
	c0.752-2.866,0.933-5.87,2.531-8.441c1.384-2.227,4.215-3.71,3.716-6.698" />
</g>
</svg>